<?xml version="1.0" encoding="UTF-8"?>
<svg xmlns="http://www.w3.org/2000/svg" width="1200" height="400" viewBox="0 0 1200 400">
<style>
  .axis { stroke:#000; stroke-width:1 }
  .grid { stroke:#ccc; stroke-width:0.8 }
  .profile { fill: rgba(30,144,255,0.25); stroke:#1e90ff; stroke-width:2 }
  .tick { stroke:#000; stroke-width:1 }
  .label { font-family: Arial, Helvetica, sans-serif; font-size:12px; fill:#000 }
</style>
<rect x="0" y="0" width="1200" height="400" fill="#ffffff"/>
<line class="axis" x1="80" y1="340" x2="1170" y2="340" />
<line class="axis" x1="80" y1="20" x2="80" y2="340" />
<line class="tick" x1="80.0" y1="340" x2="80.0" y2="346" />
<line class="grid" x1="80.0" y1="20" x2="80.0" y2="340" />
<text class="label" x="80.0" y="362" text-anchor="middle">0 m</text>
<line class="tick" x1="318.56423725103963" y1="340" x2="318.56423725103963" y2="346" />
<line class="grid" x1="318.56423725103963" y1="20" x2="318.56423725103963" y2="340" />
<text class="label" x="318.56423725103963" y="362" text-anchor="middle">1.0 km</text>
<line class="tick" x1="557.1284745020793" y1="340" x2="557.1284745020793" y2="346" />
<line class="grid" x1="557.1284745020793" y1="20" x2="557.1284745020793" y2="340" />
<text class="label" x="557.1284745020793" y="362" text-anchor="middle">2.0 km</text>
<line class="tick" x1="795.6927117531188" y1="340" x2="795.6927117531188" y2="346" />
<line class="grid" x1="795.6927117531188" y1="20" x2="795.6927117531188" y2="340" />
<text class="label" x="795.6927117531188" y="362" text-anchor="middle">3.0 km</text>
<line class="tick" x1="1034.2569490041585" y1="340" x2="1034.2569490041585" y2="346" />
<line class="grid" x1="1034.2569490041585" y1="20" x2="1034.2569490041585" y2="340" />
<text class="label" x="1034.2569490041585" y="362" text-anchor="middle">4.0 km</text>
<line class="tick" x1="1170.0" y1="340" x2="1170.0" y2="346" />
<line class="grid" x1="1170.0" y1="20" x2="1170.0" y2="340" />
<text class="label" x="1170.0" y="362" text-anchor="middle">4.6 km</text>
<line class="tick" x1="74" y1="340.0" x2="80" y2="340.0" />
<line class="grid" x1="80" y1="340.0" x2="1170" y2="340.0" />
<text class="label" x="70" y="344.0" text-anchor="end">165 m</text>
<line class="tick" x1="74" y1="245.88235294117646" x2="80" y2="245.88235294117646" />
<line class="grid" x1="80" y1="245.88235294117646" x2="1170" y2="245.88235294117646" />
<text class="label" x="70" y="249.88235294117646" text-anchor="end">170 m</text>
<line class="tick" x1="74" y1="151.76470588235293" x2="80" y2="151.76470588235293" />
<line class="grid" x1="80" y1="151.76470588235293" x2="1170" y2="151.76470588235293" />
<text class="label" x="70" y="155.76470588235293" text-anchor="end">175 m</text>
<line class="tick" x1="74" y1="57.64705882352942" x2="80" y2="57.64705882352942" />
<line class="grid" x1="80" y1="57.64705882352942" x2="1170" y2="57.64705882352942" />
<text class="label" x="70" y="61.64705882352942" text-anchor="end">180 m</text>
<polygon class="profile" points="80.00,38.82 125.57,57.65 360.07,283.53 380.11,340.00 599.35,76.47 641.58,95.29 673.55,20.00 742.49,76.47 825.75,170.59 881.58,170.59 927.86,95.29 980.10,114.12 1088.89,95.29 1170.00,38.82 1170.00,340.00 80.00,340.00" />
<polyline fill="none" stroke="#1e90ff" stroke-width="2" points="80.00,38.82 125.57,57.65 360.07,283.53 380.11,340.00 599.35,76.47 641.58,95.29 673.55,20.00 742.49,76.47 825.75,170.59 881.58,170.59 927.86,95.29 980.10,114.12 1088.89,95.29 1170.00,38.82" />
<text class="label" x="600.0" y="32" text-anchor="middle" font-size="16">Perfil altimétrico del circuito</text>
<text class="label" x="600.0" y="390" text-anchor="middle">Distancia</text>
<g transform="translate(18,200.0) rotate(-90)">
  <text class="label" x="0" y="0" text-anchor="middle">Altitud (m)</text>
</g>
<circle cx="80.00" cy="38.82" r="3" fill="#ff0000" />
<text class="label" x="86.00" y="32.82" font-size="12">Origen</text>
<circle cx="1170.00" cy="38.82" r="3" fill="#006400" />
<text class="label" x="1164.00" y="32.82" font-size="12" text-anchor="end">Fin</text>
</svg>