<?xml version="1.0" encoding="utf-8"?><svg width="auto" height="6420" style="overflow:visible " version="1.1" xmlns="http://www.w3.org/2000/svg"><rect x="20" y="20" width="200" height="40" style="fill:white;stroke:black;stroke-width:1" /><text x="30" y="30" font-size="10" style="fill:blue">xs:schema</text><text x="30" y="40" font-size="8" style="fill:black">xmlns:xs: http://www.w3.org/2001/XMLSchema</text><text x="30" y="50" font-size="8" style="fill:black">targetNamespace: http://www.uniovi.es</text><text x="30" y="60" font-size="8" style="fill:black">xmlns: http://www.uniovi.es</text><text x="30" y="70" font-size="8" style="fill:black">elementFormDefault: qualified</text><rect x="240" y="20" width="200" height="40" style="fill:white;stroke:black;stroke-width:1" /><text x="250" y="30" font-size="10" style="fill:blue">xs:element</text><path d="M220 40 C240 40 220 40 240 40" style="fill:transparent;stroke:black" /><text x="250" y="40" font-size="8" style="fill:black">name: circuito</text><rect x="460" y="20" width="200" height="40" style="fill:white;stroke:black;stroke-width:1" /><text x="470" y="30" font-size="10" style="fill:blue">xs:complexType</text><path d="M440 40 C460 40 440 40 460 40" style="fill:transparent;stroke:black" /><rect x="680" y="20" width="200" height="40" style="fill:white;stroke:black;stroke-width:1" /><text x="690" y="30" font-size="10" style="fill:blue">xs:sequence</text><path d="M660 40 C680 40 660 40 680 40" style="fill:transparent;stroke:black" /><rect x="900" y="20" width="200" height="40" style="fill:white;stroke:black;stroke-width:1" /><text x="910" y="30" font-size="10" style="fill:blue">xs:element</text><path d="M880 40 C900 40 880 40 900 40" style="fill:transparent;stroke:black" /><text x="910" y="40" font-size="8" style="fill:black">name: nombre</text><text x="910" y="50" font-size="8" style="fill:black">type: xs:string</text><rect x="900" y="70" width="200" height="40" style="fill:white;stroke:black;stroke-width:1" /><text x="910" y="80" font-size="10" style="fill:blue">xs:element</text><path d="M880 40 C900 40 880 90 900 90" style="fill:transparent;stroke:black" /><text x="910" y="90" font-size="8" style="fill:black">name: longitud</text><text x="910" y="100" font-size="8" style="fill:black">type: LongitudType</text><rect x="900" y="120" width="200" height="40" style="fill:white;stroke:black;stroke-width:1" /><text x="910" y="130" font-size="10" style="fill:blue">xs:element</text><path d="M880 40 C900 40 880 140 900 140" style="fill:transparent;stroke:black" /><text x="910" y="140" font-size="8" style="fill:black">name: anchura</text><text x="910" y="150" font-size="8" style="fill:black">type: AnchuraType</text><rect x="900" y="170" width="200" height="40" style="fill:white;stroke:black;stroke-width:1" /><text x="910" y="180" font-size="10" style="fill:blue">xs:element</text><path d="M880 40 C900 40 880 190 900 190" style="fill:transparent;stroke:black" /><text x="910" y="190" font-size="8" style="fill:black">name: carrera</text><text x="910" y="200" font-size="8" style="fill:black">type: CarreraType</text><rect x="900" y="220" width="200" height="40" style="fill:white;stroke:black;stroke-width:1" /><text x="910" y="230" font-size="10" style="fill:blue">xs:element</text><path d="M880 40 C900 40 880 240 900 240" style="fill:transparent;stroke:black" /><text x="910" y="240" font-size="8" style="fill:black">name: localidad</text><text x="910" y="250" font-size="8" style="fill:black">type: xs:string</text><rect x="900" y="270" width="200" height="40" style="fill:white;stroke:black;stroke-width:1" /><text x="910" y="280" font-size="10" style="fill:blue">xs:element</text><path d="M880 40 C900 40 880 290 900 290" style="fill:transparent;stroke:black" /><text x="910" y="290" font-size="8" style="fill:black">name: pais</text><text x="910" y="300" font-size="8" style="fill:black">type: xs:string</text><rect x="900" y="320" width="200" height="40" style="fill:white;stroke:black;stroke-width:1" /><text x="910" y="330" font-size="10" style="fill:blue">xs:element</text><path d="M880 40 C900 40 880 340 900 340" style="fill:transparent;stroke:black" /><text x="910" y="340" font-size="8" style="fill:black">name: patrocinador</text><text x="910" y="350" font-size="8" style="fill:black">type: xs:string</text><rect x="900" y="370" width="200" height="40" style="fill:white;stroke:black;stroke-width:1" /><text x="910" y="380" font-size="10" style="fill:blue">xs:element</text><path d="M880 40 C900 40 880 390 900 390" style="fill:transparent;stroke:black" /><text x="910" y="390" font-size="8" style="fill:black">name: referencias</text><text x="910" y="400" font-size="8" style="fill:black">type: ReferenciasType</text><rect x="900" y="420" width="200" height="40" style="fill:white;stroke:black;stroke-width:1" /><text x="910" y="430" font-size="10" style="fill:blue">xs:element</text><path d="M880 40 C900 40 880 440 900 440" style="fill:transparent;stroke:black" /><text x="910" y="440" font-size="8" style="fill:black">name: galeria_fotos</text><text x="910" y="450" font-size="8" style="fill:black">type: GaleriaFotosType</text><rect x="900" y="470" width="200" height="40" style="fill:white;stroke:black;stroke-width:1" /><text x="910" y="480" font-size="10" style="fill:blue">xs:element</text><path d="M880 40 C900 40 880 490 900 490" style="fill:transparent;stroke:black" /><text x="910" y="490" font-size="8" style="fill:black">name: galeria_videos</text><text x="910" y="500" font-size="8" style="fill:black">type: GaleriaVideosType</text><rect x="900" y="520" width="200" height="40" style="fill:white;stroke:black;stroke-width:1" /><text x="910" y="530" font-size="10" style="fill:blue">xs:element</text><path d="M880 40 C900 40 880 540 900 540" style="fill:transparent;stroke:black" /><text x="910" y="540" font-size="8" style="fill:black">name: punto_origen</text><text x="910" y="550" font-size="8" style="fill:black">type: PuntoOrigenType</text><rect x="900" y="570" width="200" height="40" style="fill:white;stroke:black;stroke-width:1" /><text x="910" y="580" font-size="10" style="fill:blue">xs:element</text><path d="M880 40 C900 40 880 590 900 590" style="fill:transparent;stroke:black" /><text x="910" y="590" font-size="8" style="fill:black">name: tramos</text><text x="910" y="600" font-size="8" style="fill:black">type: TramosType</text><rect x="900" y="620" width="200" height="40" style="fill:white;stroke:black;stroke-width:1" /><text x="910" y="630" font-size="10" style="fill:blue">xs:element</text><path d="M880 40 C900 40 880 640 900 640" style="fill:transparent;stroke:black" /><text x="910" y="640" font-size="8" style="fill:black">name: resultado</text><text x="910" y="650" font-size="8" style="fill:black">type: ResultadoType</text><rect x="900" y="670" width="200" height="40" style="fill:white;stroke:black;stroke-width:1" /><text x="910" y="680" font-size="10" style="fill:blue">xs:element</text><path d="M880 40 C900 40 880 690 900 690" style="fill:transparent;stroke:black" /><text x="910" y="690" font-size="8" style="fill:black">name: clasificacion_mundial</text><text x="910" y="700" font-size="8" style="fill:black">type: ClasificacionType</text><rect x="680" y="770" width="200" height="40" style="fill:white;stroke:black;stroke-width:1" /><text x="690" y="780" font-size="10" style="fill:blue">xs:attribute</text><path d="M660 40 C680 40 660 790 680 790" style="fill:transparent;stroke:black" /><text x="690" y="790" font-size="8" style="fill:black">name: version</text><text x="690" y="800" font-size="8" style="fill:black">type: xs:decimal</text><text x="690" y="810" font-size="8" style="fill:black">use: required</text><rect x="680" y="820" width="200" height="40" style="fill:white;stroke:black;stroke-width:1" /><text x="690" y="830" font-size="10" style="fill:blue">xs:attribute</text><path d="M660 40 C680 40 660 840 680 840" style="fill:transparent;stroke:black" /><text x="690" y="840" font-size="8" style="fill:black">name: idioma</text><text x="690" y="850" font-size="8" style="fill:black">type: xs:language</text><text x="690" y="860" font-size="8" style="fill:black">use: required</text><rect x="240" y="970" width="200" height="40" style="fill:white;stroke:black;stroke-width:1" /><text x="250" y="980" font-size="10" style="fill:blue">xs:complexType</text><path d="M220 40 C240 40 220 990 240 990" style="fill:transparent;stroke:black" /><text x="250" y="990" font-size="8" style="fill:black">name: LongitudType</text><rect x="460" y="970" width="200" height="40" style="fill:white;stroke:black;stroke-width:1" /><text x="470" y="980" font-size="10" style="fill:blue">xs:simpleContent</text><path d="M440 990 C460 990 440 990 460 990" style="fill:transparent;stroke:black" /><rect x="680" y="970" width="200" height="40" style="fill:white;stroke:black;stroke-width:1" /><text x="690" y="980" font-size="10" style="fill:blue">xs:extension</text><path d="M660 990 C680 990 660 990 680 990" style="fill:transparent;stroke:black" /><text x="690" y="990" font-size="8" style="fill:black">base: PositiveMetersType</text><rect x="900" y="970" width="200" height="40" style="fill:white;stroke:black;stroke-width:1" /><text x="910" y="980" font-size="10" style="fill:blue">xs:attribute</text><path d="M880 990 C900 990 880 990 900 990" style="fill:transparent;stroke:black" /><text x="910" y="990" font-size="8" style="fill:black">name: unidad</text><text x="910" y="1000" font-size="8" style="fill:black">type: xs:string</text><text x="910" y="1010" font-size="8" style="fill:black">use: required</text><rect x="240" y="1170" width="200" height="40" style="fill:white;stroke:black;stroke-width:1" /><text x="250" y="1180" font-size="10" style="fill:blue">xs:complexType</text><path d="M220 40 C240 40 220 1190 240 1190" style="fill:transparent;stroke:black" /><text x="250" y="1190" font-size="8" style="fill:black">name: AnchuraType</text><rect x="460" y="1170" width="200" height="40" style="fill:white;stroke:black;stroke-width:1" /><text x="470" y="1180" font-size="10" style="fill:blue">xs:simpleContent</text><path d="M440 1190 C460 1190 440 1190 460 1190" style="fill:transparent;stroke:black" /><rect x="680" y="1170" width="200" height="40" style="fill:white;stroke:black;stroke-width:1" /><text x="690" y="1180" font-size="10" style="fill:blue">xs:extension</text><path d="M660 1190 C680 1190 660 1190 680 1190" style="fill:transparent;stroke:black" /><text x="690" y="1190" font-size="8" style="fill:black">base: PositiveMetersType</text><rect x="900" y="1170" width="200" height="40" style="fill:white;stroke:black;stroke-width:1" /><text x="910" y="1180" font-size="10" style="fill:blue">xs:attribute</text><path d="M880 1190 C900 1190 880 1190 900 1190" style="fill:transparent;stroke:black" /><text x="910" y="1190" font-size="8" style="fill:black">name: unidad</text><text x="910" y="1200" font-size="8" style="fill:black">type: xs:string</text><text x="910" y="1210" font-size="8" style="fill:black">use: required</text><rect x="240" y="1370" width="200" height="40" style="fill:white;stroke:black;stroke-width:1" /><text x="250" y="1380" font-size="10" style="fill:blue">xs:simpleType</text><path d="M220 40 C240 40 220 1390 240 1390" style="fill:transparent;stroke:black" /><text x="250" y="1390" font-size="8" style="fill:black">name: PositiveMetersType</text><rect x="460" y="1370" width="200" height="40" style="fill:white;stroke:black;stroke-width:1" /><text x="470" y="1380" font-size="10" style="fill:blue">xs:restriction</text><path d="M440 1390 C460 1390 440 1390 460 1390" style="fill:transparent;stroke:black" /><text x="470" y="1390" font-size="8" style="fill:black">base: xs:decimal</text><rect x="680" y="1370" width="200" height="40" style="fill:white;stroke:black;stroke-width:1" /><text x="690" y="1380" font-size="10" style="fill:blue">xs:minInclusive</text><path d="M660 1390 C680 1390 660 1390 680 1390" style="fill:transparent;stroke:black" /><text x="690" y="1390" font-size="8" style="fill:black">value: 1</text><rect x="680" y="1420" width="200" height="40" style="fill:white;stroke:black;stroke-width:1" /><text x="690" y="1430" font-size="10" style="fill:blue">xs:maxInclusive</text><path d="M660 1390 C680 1390 660 1440 680 1440" style="fill:transparent;stroke:black" /><text x="690" y="1440" font-size="8" style="fill:black">value: 10000</text><rect x="240" y="1570" width="200" height="40" style="fill:white;stroke:black;stroke-width:1" /><text x="250" y="1580" font-size="10" style="fill:blue">xs:complexType</text><path d="M220 40 C240 40 220 1590 240 1590" style="fill:transparent;stroke:black" /><text x="250" y="1590" font-size="8" style="fill:black">name: CarreraType</text><rect x="460" y="1570" width="200" height="40" style="fill:white;stroke:black;stroke-width:1" /><text x="470" y="1580" font-size="10" style="fill:blue">xs:sequence</text><path d="M440 1590 C460 1590 440 1590 460 1590" style="fill:transparent;stroke:black" /><rect x="680" y="1570" width="200" height="40" style="fill:white;stroke:black;stroke-width:1" /><text x="690" y="1580" font-size="10" style="fill:blue">xs:element</text><path d="M660 1590 C680 1590 660 1590 680 1590" style="fill:transparent;stroke:black" /><text x="690" y="1590" font-size="8" style="fill:black">name: fecha</text><text x="690" y="1600" font-size="8" style="fill:black">type: xs:date</text><rect x="680" y="1620" width="200" height="40" style="fill:white;stroke:black;stroke-width:1" /><text x="690" y="1630" font-size="10" style="fill:blue">xs:element</text><path d="M660 1590 C680 1590 660 1640 680 1640" style="fill:transparent;stroke:black" /><text x="690" y="1640" font-size="8" style="fill:black">name: hora</text><text x="690" y="1650" font-size="8" style="fill:black">type: HoraType</text><rect x="680" y="1670" width="200" height="40" style="fill:white;stroke:black;stroke-width:1" /><text x="690" y="1680" font-size="10" style="fill:blue">xs:element</text><path d="M660 1590 C680 1590 660 1690 680 1690" style="fill:transparent;stroke:black" /><text x="690" y="1690" font-size="8" style="fill:black">name: vueltas</text><text x="690" y="1700" font-size="8" style="fill:black">type: VueltasType</text><rect x="240" y="1820" width="200" height="40" style="fill:white;stroke:black;stroke-width:1" /><text x="250" y="1830" font-size="10" style="fill:blue">xs:simpleType</text><path d="M220 40 C240 40 220 1840 240 1840" style="fill:transparent;stroke:black" /><text x="250" y="1840" font-size="8" style="fill:black">name: HoraType</text><rect x="460" y="1820" width="200" height="40" style="fill:white;stroke:black;stroke-width:1" /><text x="470" y="1830" font-size="10" style="fill:blue">xs:restriction</text><path d="M440 1840 C460 1840 440 1840 460 1840" style="fill:transparent;stroke:black" /><text x="470" y="1840" font-size="8" style="fill:black">base: xs:string</text><rect x="680" y="1820" width="200" height="40" style="fill:white;stroke:black;stroke-width:1" /><text x="690" y="1830" font-size="10" style="fill:blue">xs:pattern</text><path d="M660 1840 C680 1840 660 1840 680 1840" style="fill:transparent;stroke:black" /><text x="690" y="1840" font-size="8" style="fill:black">value: \d{2}:\d{2}(\+\d{2}:\d{2})?</text><rect x="240" y="1970" width="200" height="40" style="fill:white;stroke:black;stroke-width:1" /><text x="250" y="1980" font-size="10" style="fill:blue">xs:simpleType</text><path d="M220 40 C240 40 220 1990 240 1990" style="fill:transparent;stroke:black" /><text x="250" y="1990" font-size="8" style="fill:black">name: VueltasType</text><rect x="460" y="1970" width="200" height="40" style="fill:white;stroke:black;stroke-width:1" /><text x="470" y="1980" font-size="10" style="fill:blue">xs:restriction</text><path d="M440 1990 C460 1990 440 1990 460 1990" style="fill:transparent;stroke:black" /><text x="470" y="1990" font-size="8" style="fill:black">base: xs:positiveInteger</text><rect x="680" y="1970" width="200" height="40" style="fill:white;stroke:black;stroke-width:1" /><text x="690" y="1980" font-size="10" style="fill:blue">xs:minInclusive</text><path d="M660 1990 C680 1990 660 1990 680 1990" style="fill:transparent;stroke:black" /><text x="690" y="1990" font-size="8" style="fill:black">value: 1</text><rect x="680" y="2020" width="200" height="40" style="fill:white;stroke:black;stroke-width:1" /><text x="690" y="2030" font-size="10" style="fill:blue">xs:maxInclusive</text><path d="M660 1990 C680 1990 660 2040 680 2040" style="fill:transparent;stroke:black" /><text x="690" y="2040" font-size="8" style="fill:black">value: 200</text><rect x="240" y="2170" width="200" height="40" style="fill:white;stroke:black;stroke-width:1" /><text x="250" y="2180" font-size="10" style="fill:blue">xs:complexType</text><path d="M220 40 C240 40 220 2190 240 2190" style="fill:transparent;stroke:black" /><text x="250" y="2190" font-size="8" style="fill:black">name: ReferenciasType</text><rect x="460" y="2170" width="200" height="40" style="fill:white;stroke:black;stroke-width:1" /><text x="470" y="2180" font-size="10" style="fill:blue">xs:sequence</text><path d="M440 2190 C460 2190 440 2190 460 2190" style="fill:transparent;stroke:black" /><rect x="680" y="2170" width="200" height="40" style="fill:white;stroke:black;stroke-width:1" /><text x="690" y="2180" font-size="10" style="fill:blue">xs:element</text><path d="M660 2190 C680 2190 660 2190 680 2190" style="fill:transparent;stroke:black" /><text x="690" y="2190" font-size="8" style="fill:black">name: referencia</text><text x="690" y="2200" font-size="8" style="fill:black">type: ReferenciaType</text><text x="690" y="2210" font-size="8" style="fill:black">minOccurs: 3</text><text x="690" y="2220" font-size="8" style="fill:black">maxOccurs: 10</text><rect x="240" y="2320" width="200" height="40" style="fill:white;stroke:black;stroke-width:1" /><text x="250" y="2330" font-size="10" style="fill:blue">xs:complexType</text><path d="M220 40 C240 40 220 2340 240 2340" style="fill:transparent;stroke:black" /><text x="250" y="2340" font-size="8" style="fill:black">name: ReferenciaType</text><rect x="460" y="2320" width="200" height="40" style="fill:white;stroke:black;stroke-width:1" /><text x="470" y="2330" font-size="10" style="fill:blue">xs:simpleContent</text><path d="M440 2340 C460 2340 440 2340 460 2340" style="fill:transparent;stroke:black" /><rect x="680" y="2320" width="200" height="40" style="fill:white;stroke:black;stroke-width:1" /><text x="690" y="2330" font-size="10" style="fill:blue">xs:extension</text><path d="M660 2340 C680 2340 660 2340 680 2340" style="fill:transparent;stroke:black" /><text x="690" y="2340" font-size="8" style="fill:black">base: xs:string</text><rect x="900" y="2320" width="200" height="40" style="fill:white;stroke:black;stroke-width:1" /><text x="910" y="2330" font-size="10" style="fill:blue">xs:attribute</text><path d="M880 2340 C900 2340 880 2340 900 2340" style="fill:transparent;stroke:black" /><text x="910" y="2340" font-size="8" style="fill:black">name: url</text><text x="910" y="2350" font-size="8" style="fill:black">type: xs:anyURI</text><text x="910" y="2360" font-size="8" style="fill:black">use: required</text><rect x="240" y="2520" width="200" height="40" style="fill:white;stroke:black;stroke-width:1" /><text x="250" y="2530" font-size="10" style="fill:blue">xs:complexType</text><path d="M220 40 C240 40 220 2540 240 2540" style="fill:transparent;stroke:black" /><text x="250" y="2540" font-size="8" style="fill:black">name: GaleriaFotosType</text><rect x="460" y="2520" width="200" height="40" style="fill:white;stroke:black;stroke-width:1" /><text x="470" y="2530" font-size="10" style="fill:blue">xs:sequence</text><path d="M440 2540 C460 2540 440 2540 460 2540" style="fill:transparent;stroke:black" /><rect x="680" y="2520" width="200" height="40" style="fill:white;stroke:black;stroke-width:1" /><text x="690" y="2530" font-size="10" style="fill:blue">xs:element</text><path d="M660 2540 C680 2540 660 2540 680 2540" style="fill:transparent;stroke:black" /><text x="690" y="2540" font-size="8" style="fill:black">name: foto</text><text x="690" y="2550" font-size="8" style="fill:black">type: FotoType</text><text x="690" y="2560" font-size="8" style="fill:black">minOccurs: 1</text><text x="690" y="2570" font-size="8" style="fill:black">maxOccurs: 5</text><rect x="240" y="2670" width="200" height="40" style="fill:white;stroke:black;stroke-width:1" /><text x="250" y="2680" font-size="10" style="fill:blue">xs:complexType</text><path d="M220 40 C240 40 220 2690 240 2690" style="fill:transparent;stroke:black" /><text x="250" y="2690" font-size="8" style="fill:black">name: FotoType</text><rect x="460" y="2670" width="200" height="40" style="fill:white;stroke:black;stroke-width:1" /><text x="470" y="2680" font-size="10" style="fill:blue">xs:attribute</text><path d="M440 2690 C460 2690 440 2690 460 2690" style="fill:transparent;stroke:black" /><text x="470" y="2690" font-size="8" style="fill:black">name: fichero</text><text x="470" y="2700" font-size="8" style="fill:black">type: xs:string</text><text x="470" y="2710" font-size="8" style="fill:black">use: required</text><rect x="460" y="2720" width="200" height="40" style="fill:white;stroke:black;stroke-width:1" /><text x="470" y="2730" font-size="10" style="fill:blue">xs:attribute</text><path d="M440 2690 C460 2690 440 2740 460 2740" style="fill:transparent;stroke:black" /><text x="470" y="2740" font-size="8" style="fill:black">name: descripcion</text><text x="470" y="2750" font-size="8" style="fill:black">type: xs:string</text><rect x="460" y="2770" width="200" height="40" style="fill:white;stroke:black;stroke-width:1" /><text x="470" y="2780" font-size="10" style="fill:blue">xs:attribute</text><path d="M440 2690 C460 2690 440 2790 460 2790" style="fill:transparent;stroke:black" /><text x="470" y="2790" font-size="8" style="fill:black">name: formato</text><text x="470" y="2800" font-size="8" style="fill:black">type: xs:string</text><rect x="460" y="2820" width="200" height="40" style="fill:white;stroke:black;stroke-width:1" /><text x="470" y="2830" font-size="10" style="fill:blue">xs:attribute</text><path d="M440 2690 C460 2690 440 2840 460 2840" style="fill:transparent;stroke:black" /><text x="470" y="2840" font-size="8" style="fill:black">name: tamaño_kb</text><text x="470" y="2850" font-size="8" style="fill:black">type: xs:decimal</text><rect x="240" y="2920" width="200" height="40" style="fill:white;stroke:black;stroke-width:1" /><text x="250" y="2930" font-size="10" style="fill:blue">xs:complexType</text><path d="M220 40 C240 40 220 2940 240 2940" style="fill:transparent;stroke:black" /><text x="250" y="2940" font-size="8" style="fill:black">name: GaleriaVideosType</text><rect x="460" y="2920" width="200" height="40" style="fill:white;stroke:black;stroke-width:1" /><text x="470" y="2930" font-size="10" style="fill:blue">xs:sequence</text><path d="M440 2940 C460 2940 440 2940 460 2940" style="fill:transparent;stroke:black" /><rect x="680" y="2920" width="200" height="40" style="fill:white;stroke:black;stroke-width:1" /><text x="690" y="2930" font-size="10" style="fill:blue">xs:element</text><path d="M660 2940 C680 2940 660 2940 680 2940" style="fill:transparent;stroke:black" /><text x="690" y="2940" font-size="8" style="fill:black">name: video</text><text x="690" y="2950" font-size="8" style="fill:black">type: VideoType</text><text x="690" y="2960" font-size="8" style="fill:black">minOccurs: 1</text><text x="690" y="2970" font-size="8" style="fill:black">maxOccurs: 5</text><rect x="240" y="3070" width="200" height="40" style="fill:white;stroke:black;stroke-width:1" /><text x="250" y="3080" font-size="10" style="fill:blue">xs:complexType</text><path d="M220 40 C240 40 220 3090 240 3090" style="fill:transparent;stroke:black" /><text x="250" y="3090" font-size="8" style="fill:black">name: VideoType</text><rect x="460" y="3070" width="200" height="40" style="fill:white;stroke:black;stroke-width:1" /><text x="470" y="3080" font-size="10" style="fill:blue">xs:attribute</text><path d="M440 3090 C460 3090 440 3090 460 3090" style="fill:transparent;stroke:black" /><text x="470" y="3090" font-size="8" style="fill:black">name: fichero</text><text x="470" y="3100" font-size="8" style="fill:black">type: xs:string</text><text x="470" y="3110" font-size="8" style="fill:black">use: required</text><rect x="460" y="3120" width="200" height="40" style="fill:white;stroke:black;stroke-width:1" /><text x="470" y="3130" font-size="10" style="fill:blue">xs:attribute</text><path d="M440 3090 C460 3090 440 3140 460 3140" style="fill:transparent;stroke:black" /><text x="470" y="3140" font-size="8" style="fill:black">name: descripcion</text><text x="470" y="3150" font-size="8" style="fill:black">type: xs:string</text><rect x="460" y="3170" width="200" height="40" style="fill:white;stroke:black;stroke-width:1" /><text x="470" y="3180" font-size="10" style="fill:blue">xs:attribute</text><path d="M440 3090 C460 3090 440 3190 460 3190" style="fill:transparent;stroke:black" /><text x="470" y="3190" font-size="8" style="fill:black">name: formato</text><text x="470" y="3200" font-size="8" style="fill:black">type: xs:string</text><rect x="460" y="3220" width="200" height="40" style="fill:white;stroke:black;stroke-width:1" /><text x="470" y="3230" font-size="10" style="fill:blue">xs:attribute</text><path d="M440 3090 C460 3090 440 3240 460 3240" style="fill:transparent;stroke:black" /><text x="470" y="3240" font-size="8" style="fill:black">name: duracion_s</text><text x="470" y="3250" font-size="8" style="fill:black">type: DuracionType</text><rect x="240" y="3320" width="200" height="40" style="fill:white;stroke:black;stroke-width:1" /><text x="250" y="3330" font-size="10" style="fill:blue">xs:simpleType</text><path d="M220 40 C240 40 220 3340 240 3340" style="fill:transparent;stroke:black" /><text x="250" y="3340" font-size="8" style="fill:black">name: DuracionType</text><rect x="460" y="3320" width="200" height="40" style="fill:white;stroke:black;stroke-width:1" /><text x="470" y="3330" font-size="10" style="fill:blue">xs:restriction</text><path d="M440 3340 C460 3340 440 3340 460 3340" style="fill:transparent;stroke:black" /><text x="470" y="3340" font-size="8" style="fill:black">base: xs:integer</text><rect x="680" y="3320" width="200" height="40" style="fill:white;stroke:black;stroke-width:1" /><text x="690" y="3330" font-size="10" style="fill:blue">xs:minInclusive</text><path d="M660 3340 C680 3340 660 3340 680 3340" style="fill:transparent;stroke:black" /><text x="690" y="3340" font-size="8" style="fill:black">value: 1</text><rect x="680" y="3370" width="200" height="40" style="fill:white;stroke:black;stroke-width:1" /><text x="690" y="3380" font-size="10" style="fill:blue">xs:maxInclusive</text><path d="M660 3340 C680 3340 660 3390 680 3390" style="fill:transparent;stroke:black" /><text x="690" y="3390" font-size="8" style="fill:black">value: 3600</text><rect x="240" y="3520" width="200" height="40" style="fill:white;stroke:black;stroke-width:1" /><text x="250" y="3530" font-size="10" style="fill:blue">xs:complexType</text><path d="M220 40 C240 40 220 3540 240 3540" style="fill:transparent;stroke:black" /><text x="250" y="3540" font-size="8" style="fill:black">name: PuntoOrigenType</text><rect x="460" y="3520" width="200" height="40" style="fill:white;stroke:black;stroke-width:1" /><text x="470" y="3530" font-size="10" style="fill:blue">xs:sequence</text><path d="M440 3540 C460 3540 440 3540 460 3540" style="fill:transparent;stroke:black" /><rect x="680" y="3520" width="200" height="40" style="fill:white;stroke:black;stroke-width:1" /><text x="690" y="3530" font-size="10" style="fill:blue">xs:element</text><path d="M660 3540 C680 3540 660 3540 680 3540" style="fill:transparent;stroke:black" /><text x="690" y="3540" font-size="8" style="fill:black">name: longitud_coor</text><text x="690" y="3550" font-size="8" style="fill:black">type: CoordenadaType</text><rect x="680" y="3570" width="200" height="40" style="fill:white;stroke:black;stroke-width:1" /><text x="690" y="3580" font-size="10" style="fill:blue">xs:element</text><path d="M660 3540 C680 3540 660 3590 680 3590" style="fill:transparent;stroke:black" /><text x="690" y="3590" font-size="8" style="fill:black">name: latitud_coor</text><text x="690" y="3600" font-size="8" style="fill:black">type: CoordenadaType</text><rect x="680" y="3620" width="200" height="40" style="fill:white;stroke:black;stroke-width:1" /><text x="690" y="3630" font-size="10" style="fill:blue">xs:element</text><path d="M660 3540 C680 3540 660 3640 680 3640" style="fill:transparent;stroke:black" /><text x="690" y="3640" font-size="8" style="fill:black">name: altitud_coor</text><text x="690" y="3650" font-size="8" style="fill:black">type: AltitudType</text><rect x="240" y="3770" width="200" height="40" style="fill:white;stroke:black;stroke-width:1" /><text x="250" y="3780" font-size="10" style="fill:blue">xs:simpleType</text><path d="M220 40 C240 40 220 3790 240 3790" style="fill:transparent;stroke:black" /><text x="250" y="3790" font-size="8" style="fill:black">name: CoordenadaType</text><rect x="460" y="3770" width="200" height="40" style="fill:white;stroke:black;stroke-width:1" /><text x="470" y="3780" font-size="10" style="fill:blue">xs:restriction</text><path d="M440 3790 C460 3790 440 3790 460 3790" style="fill:transparent;stroke:black" /><text x="470" y="3790" font-size="8" style="fill:black">base: xs:decimal</text><rect x="680" y="3770" width="200" height="40" style="fill:white;stroke:black;stroke-width:1" /><text x="690" y="3780" font-size="10" style="fill:blue">xs:minInclusive</text><path d="M660 3790 C680 3790 660 3790 680 3790" style="fill:transparent;stroke:black" /><text x="690" y="3790" font-size="8" style="fill:black">value: -180</text><rect x="680" y="3820" width="200" height="40" style="fill:white;stroke:black;stroke-width:1" /><text x="690" y="3830" font-size="10" style="fill:blue">xs:maxInclusive</text><path d="M660 3790 C680 3790 660 3840 680 3840" style="fill:transparent;stroke:black" /><text x="690" y="3840" font-size="8" style="fill:black">value: 180</text><rect x="240" y="3970" width="200" height="40" style="fill:white;stroke:black;stroke-width:1" /><text x="250" y="3980" font-size="10" style="fill:blue">xs:simpleType</text><path d="M220 40 C240 40 220 3990 240 3990" style="fill:transparent;stroke:black" /><text x="250" y="3990" font-size="8" style="fill:black">name: AltitudType</text><rect x="460" y="3970" width="200" height="40" style="fill:white;stroke:black;stroke-width:1" /><text x="470" y="3980" font-size="10" style="fill:blue">xs:restriction</text><path d="M440 3990 C460 3990 440 3990 460 3990" style="fill:transparent;stroke:black" /><text x="470" y="3990" font-size="8" style="fill:black">base: xs:decimal</text><rect x="680" y="3970" width="200" height="40" style="fill:white;stroke:black;stroke-width:1" /><text x="690" y="3980" font-size="10" style="fill:blue">xs:minInclusive</text><path d="M660 3990 C680 3990 660 3990 680 3990" style="fill:transparent;stroke:black" /><text x="690" y="3990" font-size="8" style="fill:black">value: -100</text><rect x="680" y="4020" width="200" height="40" style="fill:white;stroke:black;stroke-width:1" /><text x="690" y="4030" font-size="10" style="fill:blue">xs:maxInclusive</text><path d="M660 3990 C680 3990 660 4040 680 4040" style="fill:transparent;stroke:black" /><text x="690" y="4040" font-size="8" style="fill:black">value: 9000</text><rect x="240" y="4170" width="200" height="40" style="fill:white;stroke:black;stroke-width:1" /><text x="250" y="4180" font-size="10" style="fill:blue">xs:complexType</text><path d="M220 40 C240 40 220 4190 240 4190" style="fill:transparent;stroke:black" /><text x="250" y="4190" font-size="8" style="fill:black">name: TramosType</text><rect x="460" y="4170" width="200" height="40" style="fill:white;stroke:black;stroke-width:1" /><text x="470" y="4180" font-size="10" style="fill:blue">xs:sequence</text><path d="M440 4190 C460 4190 440 4190 460 4190" style="fill:transparent;stroke:black" /><rect x="680" y="4170" width="200" height="40" style="fill:white;stroke:black;stroke-width:1" /><text x="690" y="4180" font-size="10" style="fill:blue">xs:element</text><path d="M660 4190 C680 4190 660 4190 680 4190" style="fill:transparent;stroke:black" /><text x="690" y="4190" font-size="8" style="fill:black">name: tramo</text><text x="690" y="4200" font-size="8" style="fill:black">type: TramoType</text><text x="690" y="4210" font-size="8" style="fill:black">minOccurs: 1</text><text x="690" y="4220" font-size="8" style="fill:black">maxOccurs: 100</text><rect x="240" y="4320" width="200" height="40" style="fill:white;stroke:black;stroke-width:1" /><text x="250" y="4330" font-size="10" style="fill:blue">xs:complexType</text><path d="M220 40 C240 40 220 4340 240 4340" style="fill:transparent;stroke:black" /><text x="250" y="4340" font-size="8" style="fill:black">name: TramoType</text><rect x="460" y="4320" width="200" height="40" style="fill:white;stroke:black;stroke-width:1" /><text x="470" y="4330" font-size="10" style="fill:blue">xs:sequence</text><path d="M440 4340 C460 4340 440 4340 460 4340" style="fill:transparent;stroke:black" /><rect x="680" y="4320" width="200" height="40" style="fill:white;stroke:black;stroke-width:1" /><text x="690" y="4330" font-size="10" style="fill:blue">xs:element</text><path d="M660 4340 C680 4340 660 4340 680 4340" style="fill:transparent;stroke:black" /><text x="690" y="4340" font-size="8" style="fill:black">name: distancia</text><text x="690" y="4350" font-size="8" style="fill:black">type: DistanciaType</text><rect x="680" y="4370" width="200" height="40" style="fill:white;stroke:black;stroke-width:1" /><text x="690" y="4380" font-size="10" style="fill:blue">xs:element</text><path d="M660 4340 C680 4340 660 4390 680 4390" style="fill:transparent;stroke:black" /><text x="690" y="4390" font-size="8" style="fill:black">name: coordenada_final</text><text x="690" y="4400" font-size="8" style="fill:black">type: CoordenadaFinalType</text><rect x="680" y="4420" width="200" height="40" style="fill:white;stroke:black;stroke-width:1" /><text x="690" y="4430" font-size="10" style="fill:blue">xs:element</text><path d="M660 4340 C680 4340 660 4440 680 4440" style="fill:transparent;stroke:black" /><text x="690" y="4440" font-size="8" style="fill:black">name: numero_sector</text><text x="690" y="4450" font-size="8" style="fill:black">type: NumeroSectorType</text><rect x="240" y="4570" width="200" height="40" style="fill:white;stroke:black;stroke-width:1" /><text x="250" y="4580" font-size="10" style="fill:blue">xs:complexType</text><path d="M220 40 C240 40 220 4590 240 4590" style="fill:transparent;stroke:black" /><text x="250" y="4590" font-size="8" style="fill:black">name: DistanciaType</text><rect x="460" y="4570" width="200" height="40" style="fill:white;stroke:black;stroke-width:1" /><text x="470" y="4580" font-size="10" style="fill:blue">xs:simpleContent</text><path d="M440 4590 C460 4590 440 4590 460 4590" style="fill:transparent;stroke:black" /><rect x="680" y="4570" width="200" height="40" style="fill:white;stroke:black;stroke-width:1" /><text x="690" y="4580" font-size="10" style="fill:blue">xs:extension</text><path d="M660 4590 C680 4590 660 4590 680 4590" style="fill:transparent;stroke:black" /><text x="690" y="4590" font-size="8" style="fill:black">base: PositiveMetersType</text><rect x="900" y="4570" width="200" height="40" style="fill:white;stroke:black;stroke-width:1" /><text x="910" y="4580" font-size="10" style="fill:blue">xs:attribute</text><path d="M880 4590 C900 4590 880 4590 900 4590" style="fill:transparent;stroke:black" /><text x="910" y="4590" font-size="8" style="fill:black">name: unidad</text><text x="910" y="4600" font-size="8" style="fill:black">type: xs:string</text><text x="910" y="4610" font-size="8" style="fill:black">use: required</text><rect x="240" y="4770" width="200" height="40" style="fill:white;stroke:black;stroke-width:1" /><text x="250" y="4780" font-size="10" style="fill:blue">xs:complexType</text><path d="M220 40 C240 40 220 4790 240 4790" style="fill:transparent;stroke:black" /><text x="250" y="4790" font-size="8" style="fill:black">name: CoordenadaFinalType</text><rect x="460" y="4770" width="200" height="40" style="fill:white;stroke:black;stroke-width:1" /><text x="470" y="4780" font-size="10" style="fill:blue">xs:sequence</text><path d="M440 4790 C460 4790 440 4790 460 4790" style="fill:transparent;stroke:black" /><rect x="680" y="4770" width="200" height="40" style="fill:white;stroke:black;stroke-width:1" /><text x="690" y="4780" font-size="10" style="fill:blue">xs:element</text><path d="M660 4790 C680 4790 660 4790 680 4790" style="fill:transparent;stroke:black" /><text x="690" y="4790" font-size="8" style="fill:black">name: longitud_coor_final</text><text x="690" y="4800" font-size="8" style="fill:black">type: CoordenadaType</text><rect x="680" y="4820" width="200" height="40" style="fill:white;stroke:black;stroke-width:1" /><text x="690" y="4830" font-size="10" style="fill:blue">xs:element</text><path d="M660 4790 C680 4790 660 4840 680 4840" style="fill:transparent;stroke:black" /><text x="690" y="4840" font-size="8" style="fill:black">name: latitud_coor_final</text><text x="690" y="4850" font-size="8" style="fill:black">type: CoordenadaType</text><rect x="680" y="4870" width="200" height="40" style="fill:white;stroke:black;stroke-width:1" /><text x="690" y="4880" font-size="10" style="fill:blue">xs:element</text><path d="M660 4790 C680 4790 660 4890 680 4890" style="fill:transparent;stroke:black" /><text x="690" y="4890" font-size="8" style="fill:black">name: altitud_coor_final</text><text x="690" y="4900" font-size="8" style="fill:black">type: AltitudType</text><rect x="240" y="5020" width="200" height="40" style="fill:white;stroke:black;stroke-width:1" /><text x="250" y="5030" font-size="10" style="fill:blue">xs:simpleType</text><path d="M220 40 C240 40 220 5040 240 5040" style="fill:transparent;stroke:black" /><text x="250" y="5040" font-size="8" style="fill:black">name: NumeroSectorType</text><rect x="460" y="5020" width="200" height="40" style="fill:white;stroke:black;stroke-width:1" /><text x="470" y="5030" font-size="10" style="fill:blue">xs:restriction</text><path d="M440 5040 C460 5040 440 5040 460 5040" style="fill:transparent;stroke:black" /><text x="470" y="5040" font-size="8" style="fill:black">base: xs:positiveInteger</text><rect x="680" y="5020" width="200" height="40" style="fill:white;stroke:black;stroke-width:1" /><text x="690" y="5030" font-size="10" style="fill:blue">xs:minInclusive</text><path d="M660 5040 C680 5040 660 5040 680 5040" style="fill:transparent;stroke:black" /><text x="690" y="5040" font-size="8" style="fill:black">value: 1</text><rect x="680" y="5070" width="200" height="40" style="fill:white;stroke:black;stroke-width:1" /><text x="690" y="5080" font-size="10" style="fill:blue">xs:maxInclusive</text><path d="M660 5040 C680 5040 660 5090 680 5090" style="fill:transparent;stroke:black" /><text x="690" y="5090" font-size="8" style="fill:black">value: 5</text><rect x="240" y="5220" width="200" height="40" style="fill:white;stroke:black;stroke-width:1" /><text x="250" y="5230" font-size="10" style="fill:blue">xs:complexType</text><path d="M220 40 C240 40 220 5240 240 5240" style="fill:transparent;stroke:black" /><text x="250" y="5240" font-size="8" style="fill:black">name: ResultadoType</text><rect x="460" y="5220" width="200" height="40" style="fill:white;stroke:black;stroke-width:1" /><text x="470" y="5230" font-size="10" style="fill:blue">xs:sequence</text><path d="M440 5240 C460 5240 440 5240 460 5240" style="fill:transparent;stroke:black" /><rect x="680" y="5220" width="200" height="40" style="fill:white;stroke:black;stroke-width:1" /><text x="690" y="5230" font-size="10" style="fill:blue">xs:element</text><path d="M660 5240 C680 5240 660 5240 680 5240" style="fill:transparent;stroke:black" /><text x="690" y="5240" font-size="8" style="fill:black">name: vencedor</text><text x="690" y="5250" font-size="8" style="fill:black">type: VencedorType</text><rect x="680" y="5270" width="200" height="40" style="fill:white;stroke:black;stroke-width:1" /><text x="690" y="5280" font-size="10" style="fill:blue">xs:element</text><path d="M660 5240 C680 5240 660 5290 680 5290" style="fill:transparent;stroke:black" /><text x="690" y="5290" font-size="8" style="fill:black">name: tiempo_victoria</text><text x="690" y="5300" font-size="8" style="fill:black">type: TiempoType</text><rect x="240" y="5420" width="200" height="40" style="fill:white;stroke:black;stroke-width:1" /><text x="250" y="5430" font-size="10" style="fill:blue">xs:complexType</text><path d="M220 40 C240 40 220 5440 240 5440" style="fill:transparent;stroke:black" /><text x="250" y="5440" font-size="8" style="fill:black">name: VencedorType</text><rect x="460" y="5420" width="200" height="40" style="fill:white;stroke:black;stroke-width:1" /><text x="470" y="5430" font-size="10" style="fill:blue">xs:sequence</text><path d="M440 5440 C460 5440 440 5440 460 5440" style="fill:transparent;stroke:black" /><rect x="680" y="5420" width="200" height="40" style="fill:white;stroke:black;stroke-width:1" /><text x="690" y="5430" font-size="10" style="fill:blue">xs:element</text><path d="M660 5440 C680 5440 660 5440 680 5440" style="fill:transparent;stroke:black" /><text x="690" y="5440" font-size="8" style="fill:black">name: nombre_piloto</text><text x="690" y="5450" font-size="8" style="fill:black">type: xs:string</text><rect x="680" y="5470" width="200" height="40" style="fill:white;stroke:black;stroke-width:1" /><text x="690" y="5480" font-size="10" style="fill:blue">xs:element</text><path d="M660 5440 C680 5440 660 5490 680 5490" style="fill:transparent;stroke:black" /><text x="690" y="5490" font-size="8" style="fill:black">name: nacionalidad</text><text x="690" y="5500" font-size="8" style="fill:black">type: xs:string</text><rect x="240" y="5620" width="200" height="40" style="fill:white;stroke:black;stroke-width:1" /><text x="250" y="5630" font-size="10" style="fill:blue">xs:simpleType</text><path d="M220 40 C240 40 220 5640 240 5640" style="fill:transparent;stroke:black" /><text x="250" y="5640" font-size="8" style="fill:black">name: TiempoType</text><rect x="460" y="5620" width="200" height="40" style="fill:white;stroke:black;stroke-width:1" /><text x="470" y="5630" font-size="10" style="fill:blue">xs:restriction</text><path d="M440 5640 C460 5640 440 5640 460 5640" style="fill:transparent;stroke:black" /><text x="470" y="5640" font-size="8" style="fill:black">base: xs:string</text><rect x="680" y="5620" width="200" height="40" style="fill:white;stroke:black;stroke-width:1" /><text x="690" y="5630" font-size="10" style="fill:blue">xs:pattern</text><path d="M660 5640 C680 5640 660 5640 680 5640" style="fill:transparent;stroke:black" /><text x="690" y="5640" font-size="8" style="fill:black">value: \d{2}:\d{2}:\d{2}\.\d{3}</text><rect x="240" y="5770" width="200" height="40" style="fill:white;stroke:black;stroke-width:1" /><text x="250" y="5780" font-size="10" style="fill:blue">xs:complexType</text><path d="M220 40 C240 40 220 5790 240 5790" style="fill:transparent;stroke:black" /><text x="250" y="5790" font-size="8" style="fill:black">name: ClasificacionType</text><rect x="460" y="5770" width="200" height="40" style="fill:white;stroke:black;stroke-width:1" /><text x="470" y="5780" font-size="10" style="fill:blue">xs:sequence</text><path d="M440 5790 C460 5790 440 5790 460 5790" style="fill:transparent;stroke:black" /><rect x="680" y="5770" width="200" height="40" style="fill:white;stroke:black;stroke-width:1" /><text x="690" y="5780" font-size="10" style="fill:blue">xs:element</text><path d="M660 5790 C680 5790 660 5790 680 5790" style="fill:transparent;stroke:black" /><text x="690" y="5790" font-size="8" style="fill:black">name: puesto</text><text x="690" y="5800" font-size="8" style="fill:black">type: PuestoType</text><text x="690" y="5810" font-size="8" style="fill:black">minOccurs: 1</text><text x="690" y="5820" font-size="8" style="fill:black">maxOccurs: 20</text><rect x="240" y="5920" width="200" height="40" style="fill:white;stroke:black;stroke-width:1" /><text x="250" y="5930" font-size="10" style="fill:blue">xs:complexType</text><path d="M220 40 C240 40 220 5940 240 5940" style="fill:transparent;stroke:black" /><text x="250" y="5940" font-size="8" style="fill:black">name: PuestoType</text><rect x="460" y="5920" width="200" height="40" style="fill:white;stroke:black;stroke-width:1" /><text x="470" y="5930" font-size="10" style="fill:blue">xs:sequence</text><path d="M440 5940 C460 5940 440 5940 460 5940" style="fill:transparent;stroke:black" /><rect x="680" y="5920" width="200" height="40" style="fill:white;stroke:black;stroke-width:1" /><text x="690" y="5930" font-size="10" style="fill:blue">xs:element</text><path d="M660 5940 C680 5940 660 5940 680 5940" style="fill:transparent;stroke:black" /><text x="690" y="5940" font-size="8" style="fill:black">name: posicion</text><text x="690" y="5950" font-size="8" style="fill:black">type: xs:positiveInteger</text><rect x="680" y="5970" width="200" height="40" style="fill:white;stroke:black;stroke-width:1" /><text x="690" y="5980" font-size="10" style="fill:blue">xs:element</text><path d="M660 5940 C680 5940 660 5990 680 5990" style="fill:transparent;stroke:black" /><text x="690" y="5990" font-size="8" style="fill:black">name: piloto</text><text x="690" y="6000" font-size="8" style="fill:black">type: xs:string</text><rect x="680" y="6020" width="200" height="40" style="fill:white;stroke:black;stroke-width:1" /><text x="690" y="6030" font-size="10" style="fill:blue">xs:element</text><path d="M660 5940 C680 5940 660 6040 680 6040" style="fill:transparent;stroke:black" /><text x="690" y="6040" font-size="8" style="fill:black">name: puntos</text><text x="690" y="6050" font-size="8" style="fill:black">type: PuntosType</text><rect x="240" y="6170" width="200" height="40" style="fill:white;stroke:black;stroke-width:1" /><text x="250" y="6180" font-size="10" style="fill:blue">xs:simpleType</text><path d="M220 40 C240 40 220 6190 240 6190" style="fill:transparent;stroke:black" /><text x="250" y="6190" font-size="8" style="fill:black">name: PuntosType</text><rect x="460" y="6170" width="200" height="40" style="fill:white;stroke:black;stroke-width:1" /><text x="470" y="6180" font-size="10" style="fill:blue">xs:restriction</text><path d="M440 6190 C460 6190 440 6190 460 6190" style="fill:transparent;stroke:black" /><text x="470" y="6190" font-size="8" style="fill:black">base: xs:integer</text><rect x="680" y="6170" width="200" height="40" style="fill:white;stroke:black;stroke-width:1" /><text x="690" y="6180" font-size="10" style="fill:blue">xs:minInclusive</text><path d="M660 6190 C680 6190 660 6190 680 6190" style="fill:transparent;stroke:black" /><text x="690" y="6190" font-size="8" style="fill:black">value: 0</text><rect x="680" y="6220" width="200" height="40" style="fill:white;stroke:black;stroke-width:1" /><text x="690" y="6230" font-size="10" style="fill:blue">xs:maxInclusive</text><path d="M660 6190 C680 6190 660 6240 680 6240" style="fill:transparent;stroke:black" /><text x="690" y="6240" font-size="8" style="fill:black">value: 50</text></svg>